<?xml version="1.0" standalone="no"?>
<!DOCTYPE svg PUBLIC "-//W3C//DTD SVG 20010904//EN"
 "http://www.w3.org/TR/2001/REC-SVG-20010904/DTD/svg10.dtd">
<svg version="1.0" xmlns="http://www.w3.org/2000/svg"
 width="700.000000pt" height="700.000000pt" viewBox="0 0 700.000000 700.000000"
 preserveAspectRatio="xMidYMid meet">
<metadata>
Created by potrace 1.11, written by Peter Selinger 2001-2013
</metadata>
<g transform="translate(0.000000,700.000000) scale(0.100000,-0.100000)"
fill="#000000" stroke="none">
<path d="M4890 4795 c-96 -19 -172 -51 -254 -106 -122 -81 -206 -192 -253
-333 l-27 -81 -4 -364 c-4 -417 2 -470 69 -608 96 -201 293 -332 545 -363 391
-49 729 157 810 495 24 99 27 541 4 555 -23 15 -723 13 -738 -2 -14 -14 -17
-344 -4 -365 5 -8 49 -13 137 -15 l130 -3 3 -52 c4 -67 -24 -124 -80 -160 -33
-23 -55 -28 -115 -32 -118 -5 -194 35 -246 133 -21 39 -22 55 -25 349 -2 203
1 326 8 362 28 136 160 213 298 175 78 -20 152 -108 152 -179 0 -20 7 -34 19
-41 12 -6 103 -10 226 -10 123 0 214 4 226 10 15 9 19 22 19 68 0 223 -171
439 -419 533 -128 48 -338 63 -481 34z"/>
<path d="M1152 4778 c-14 -14 -17 -374 -4 -395 6 -9 69 -13 237 -15 l230 -3 5
-698 c4 -606 7 -699 20 -707 21 -13 426 -13 451 0 18 10 19 29 19 695 0 376 3
690 6 699 5 14 36 16 244 16 208 0 239 2 244 16 12 31 7 379 -6 392 -17 17
-1429 17 -1446 0z"/>
<path d="M3090 4768 c-19 -43 -560 -1771 -560 -1790 0 -10 10 -20 23 -23 32
-8 484 -2 492 7 4 4 22 58 40 120 l32 113 290 3 291 2 31 -112 c18 -64 38
-118 48 -125 24 -19 472 -18 497 0 16 12 -2 76 -264 907 -154 492 -286 900
-292 907 -8 10 -78 13 -314 13 l-304 0 -10 -22z m408 -880 c45 -158 82 -292
82 -298 0 -6 -62 -10 -175 -10 -96 0 -175 3 -175 6 0 6 158 571 166 593 3 8 8
11 13 5 4 -5 45 -138 89 -296z"/>
<path d="M880 2185 l0 -325 2620 0 2620 0 0 325 0 325 -2620 0 -2620 0 0 -325z"/>
</g>
</svg>
