<svg width="12" height="12" viewBox="0 0 12 12" fill="none" xmlns="http://www.w3.org/2000/svg">
<path d="M6 0C2.687 0 0 2.6865 0 6C0 8.651 1.719 10.9 4.1035 11.6935C4.403 11.749 4.5 11.563 4.5 11.405V10.288C2.831 10.651 2.4835 9.58 2.4835 9.58C2.2105 8.8865 1.817 8.702 1.817 8.702C1.2725 8.3295 1.8585 8.3375 1.8585 8.3375C2.461 8.3795 2.778 8.956 2.778 8.956C3.313 9.873 4.1815 9.608 4.524 9.4545C4.5775 9.067 4.733 8.802 4.905 8.6525C3.5725 8.5 2.1715 7.9855 2.1715 5.687C2.1715 5.0315 2.406 4.4965 2.7895 4.0765C2.7275 3.925 2.522 3.3145 2.848 2.4885C2.848 2.4885 3.352 2.3275 4.4985 3.1035C4.977 2.9705 5.49 2.904 6 2.9015C6.51 2.904 7.0235 2.9705 7.503 3.1035C8.6485 2.3275 9.1515 2.4885 9.1515 2.4885C9.478 3.315 9.2725 3.9255 9.2105 4.0765C9.5955 4.4965 9.828 5.032 9.828 5.687C9.828 7.9915 8.4245 8.499 7.0885 8.6475C7.3035 8.8335 7.5 9.1985 7.5 9.7585V11.405C7.5 11.5645 7.596 11.752 7.9005 11.693C10.283 10.8985 12 8.65 12 6C12 2.6865 9.3135 0 6 0Z" fill="black"/>
</svg>
