<svg width="14" height="14" viewBox="0 0 14 14" fill="none" xmlns="http://www.w3.org/2000/svg">
<path d="M11.6667 9.04167C10.9375 9.04167 10.2375 8.925 9.58417 8.70917C9.38 8.645 9.1525 8.69167 8.98917 8.84917L7.70583 10.1325C6.055 9.2925 4.70167 7.945 3.86167 6.29417L5.145 5.005C5.30833 4.8475 5.355 4.62 5.29083 4.41583C5.075 3.7625 4.95833 3.0625 4.95833 2.33333C4.95833 2.0125 4.69583 1.75 4.375 1.75H2.33333C2.0125 1.75 1.75 2.0125 1.75 2.33333C1.75 7.81083 6.18917 12.25 11.6667 12.25C11.9875 12.25 12.25 11.9875 12.25 11.6667V9.625C12.25 9.30417 11.9875 9.04167 11.6667 9.04167ZM7 1.75V7.58333L8.75 5.83333H12.25V1.75H7Z" fill="black"/>
</svg>
