<svg width="12" height="12" viewBox="0 0 12 12" fill="none" xmlns="http://www.w3.org/2000/svg">
<g clip-path="url(#clip0)">
<path d="M12 2.27849C11.5585 2.47449 11.084 2.60649 10.586 2.66599C11.0945 2.36149 11.485 1.87899 11.6685 1.30399C11.193 1.58599 10.666 1.79099 10.105 1.90149C9.6565 1.42299 9.016 1.12399 8.308 1.12399C6.7185 1.12399 5.5505 2.60699 5.9095 4.14649C3.864 4.04399 2.05 3.06399 0.8355 1.57449C0.1905 2.68099 0.501 4.12849 1.597 4.86149C1.194 4.84849 0.814 4.73799 0.4825 4.55349C0.4555 5.69399 1.273 6.76099 2.457 6.99849C2.1105 7.09249 1.731 7.11449 1.345 7.04049C1.658 8.01849 2.567 8.72999 3.645 8.74999C2.61 9.56149 1.306 9.92399 0 9.76999C1.0895 10.4685 2.384 10.876 3.774 10.876C8.345 10.876 10.9275 7.01549 10.7715 3.55299C11.2525 3.20549 11.67 2.77199 12 2.27849Z" fill="black"/>
</g>
<defs>
<clipPath id="clip0">
<rect width="12" height="12" fill="white"/>
</clipPath>
</defs>
</svg>
